<svg width="150" height="150" viewBox="0 0 150 150" fill="none" xmlns="http://www.w3.org/2000/svg">
<g clip-path="url(#clip0)">
<rect width="150" height="150" rx="75" fill="#C1E1C1"/>
<path d="M29.9604 99.46C35.9004 99.46 50.4204 82.96 56.2404 80.74C56.4804 80.68 56.6004 80.5 56.6004 80.38C56.6004 80.26 56.4804 80.14 56.3004 80.14L56.0004 80.2C48.8004 83.38 36.7404 98.14 30.3204 98.26C29.3004 98.26 28.8804 97.48 28.8804 96.22C28.8804 91.72 33.9804 81.46 34.6404 80.62C39.5004 76.18 63.2004 56.62 63.2004 50.92C63.2004 50.56 63.1404 50.26 62.9004 50.02C62.7204 49.78 62.4204 49.66 62.0004 49.66C58.1004 49.66 45.5604 60.1 36.8004 73.6C33.3204 79 27.2004 89.86 27.2004 95.68C27.2004 97.36 27.6804 98.62 28.8804 99.22C29.2404 99.4 29.6004 99.46 29.9604 99.46ZM35.4204 79.06C40.3404 70.78 47.0604 62.44 53.3004 56.68C57.9204 52.42 60.9204 50.8 61.9404 50.8C62.1204 50.8 62.1804 50.86 62.2404 50.92L62.3004 51.16C62.3004 52.6 58.0404 57.76 53.1804 62.62C47.4204 68.38 40.5204 74.44 35.4204 79.06ZM61.9849 74.98C62.2849 74.98 62.5849 74.92 62.7049 74.68C62.8249 74.5 62.8849 74.32 62.8849 74.14C62.8849 73.84 62.7049 73.6 62.5249 73.42C62.3449 73.18 62.0449 73 61.6849 73C61.4449 73 61.2649 73.06 61.0249 73.3C60.9049 73.48 60.7849 73.78 60.7849 74.02C60.7849 74.32 60.9649 74.62 61.2049 74.8C61.3849 74.92 61.6849 74.98 61.9849 74.98ZM55.5049 90.82C59.9449 90.82 69.4249 82.12 73.1449 80.74C73.4449 80.68 73.5649 80.5 73.5649 80.38C73.5649 80.26 73.4449 80.2 73.2649 80.2L72.9649 80.26C69.2449 81.58 59.8849 89.86 55.8649 89.86C55.5049 89.86 55.2049 89.8 54.9649 89.68C54.3649 89.38 54.0649 88.78 54.0649 87.94C54.0649 85.12 57.6049 79.84 59.8849 77.26L60.0049 77.02C60.0049 76.66 59.5849 76.24 59.1649 76.24C59.0449 76.24 58.9249 76.3 58.8049 76.42C57.1849 78.22 53.0449 84.22 53.0449 87.94C53.0449 89.08 53.4649 90.04 54.4249 90.58C54.7249 90.76 55.1449 90.82 55.5049 90.82ZM64.9399 99.28C67.7599 99.28 71.8399 96.22 73.3999 87.64C77.9599 85.84 87.6799 83.5 90.9799 80.5L91.0399 80.32C91.0399 80.2 90.9799 80.14 90.8599 80.14C90.7999 80.14 90.7399 80.14 90.6799 80.2C88.3999 82.18 80.1199 84.88 73.5799 86.8C73.9999 84.1 73.9399 82.3 74.4199 80.32C75.0199 80.08 78.6199 78.28 78.6199 76.72L78.5599 76.36C78.3799 75.94 78.0199 75.76 77.5399 75.76C76.2199 75.76 74.0599 77.2 73.1599 79.6C72.3199 81.88 72.3799 85 72.0199 87.4C68.6599 88.78 66.3799 90.22 64.8199 91.72C62.8399 93.52 62.0599 95.26 62.0599 96.58C62.0599 98.2 63.2599 99.28 64.9399 99.28ZM74.5999 79.54C74.8999 78.22 76.6999 76.3 77.5999 76.3C77.8399 76.3 78.0199 76.42 78.0799 76.72V76.84C78.0799 77.74 75.2599 79.24 74.5999 79.54ZM64.9399 98.56C64.4599 98.56 64.0399 98.38 63.6799 98.08C63.1999 97.72 62.8999 97.24 62.8999 96.46C62.8999 95.5 63.4999 94.12 65.1799 92.38C66.9199 90.64 69.7999 89.14 71.8999 88.3C71.2399 93.64 67.5799 98.56 64.9399 98.56ZM96.0809 94.3C100.461 94.18 110.421 83.62 117.501 80.68C117.621 80.56 117.741 80.44 117.741 80.38C117.741 80.26 117.621 80.14 117.441 80.14L117.201 80.2C111.801 81.7 100.221 93.4 96.2609 93.4H96.1409C95.5409 93.34 95.1209 92.68 95.1209 91.48C95.1209 90.22 95.6009 88.24 97.0409 85.66C98.2409 83.5 99.3809 81.58 100.521 80.14L100.581 79.96C100.581 79.6 100.041 79.12 99.6209 79.12C99.4409 79.12 99.3209 79.18 99.2609 79.3L98.4209 80.56C97.2809 78.94 96.1409 78.28 94.8209 78.28C94.4609 78.28 94.0409 78.28 93.6809 78.4C89.7209 79.48 87.6209 82.84 87.6209 85.3C87.6209 86.8 88.4009 87.94 90.0809 87.94C91.3409 87.94 93.1409 87.28 95.4809 85.54C94.5209 87.52 93.9809 89.74 93.9809 91.42C93.9809 93.1 94.5209 94.3 95.9009 94.3H96.0809ZM90.0209 87.16C89.1809 87.16 88.7009 86.74 88.7009 85.96C88.7009 85.12 89.1809 83.98 90.3809 82.42C91.6409 80.74 93.2609 79.24 94.8809 79.24C95.9009 79.24 96.9209 79.84 97.8209 81.4C94.7609 85.36 91.6409 87.16 90.0209 87.16Z" fill="black"/>
</g>
<defs>
<clipPath id="clip0">
<rect width="150" height="150" rx="75" fill="white"/>
</clipPath>
</defs>
</svg>
