<svg width="120" height="120" viewBox="0 0 120 120" fill="none" xmlns="http://www.w3.org/2000/svg">
<rect width="120" height="120" rx="60" fill="#9CAF88"/>
<path d="M19.4604 77.46C25.4004 77.46 39.9204 60.96 45.7404 58.74C45.9804 58.68 46.1004 58.5 46.1004 58.38C46.1004 58.26 45.9804 58.14 45.8004 58.14L45.5004 58.2C38.3004 61.38 26.2404 76.14 19.8204 76.26C18.8004 76.26 18.3804 75.48 18.3804 74.22C18.3804 69.72 23.4804 59.46 24.1404 58.62C29.0004 54.18 52.7004 34.62 52.7004 28.92C52.7004 28.56 52.6404 28.26 52.4004 28.02C52.2204 27.78 51.9204 27.66 51.5004 27.66C47.6004 27.66 35.0604 38.1 26.3004 51.6C22.8204 57 16.7004 67.86 16.7004 73.68C16.7004 75.36 17.1804 76.62 18.3804 77.22C18.7404 77.4 19.1004 77.46 19.4604 77.46ZM24.9204 57.06C29.8404 48.78 36.5604 40.44 42.8004 34.68C47.4204 30.42 50.4204 28.8 51.4404 28.8C51.6204 28.8 51.6804 28.86 51.7404 28.92L51.8004 29.16C51.8004 30.6 47.5404 35.76 42.6804 40.62C36.9204 46.38 30.0204 52.44 24.9204 57.06ZM51.4849 52.98C51.7849 52.98 52.0849 52.92 52.2049 52.68C52.3249 52.5 52.3849 52.32 52.3849 52.14C52.3849 51.84 52.2049 51.6 52.0249 51.42C51.8449 51.18 51.5449 51 51.1849 51C50.9449 51 50.7649 51.06 50.5249 51.3C50.4049 51.48 50.2849 51.78 50.2849 52.02C50.2849 52.32 50.4649 52.62 50.7049 52.8C50.8849 52.92 51.1849 52.98 51.4849 52.98ZM45.0049 68.82C49.4449 68.82 58.9249 60.12 62.6449 58.74C62.9449 58.68 63.0649 58.5 63.0649 58.38C63.0649 58.26 62.9449 58.2 62.7649 58.2L62.4649 58.26C58.7449 59.58 49.3849 67.86 45.3649 67.86C45.0049 67.86 44.7049 67.8 44.4649 67.68C43.8649 67.38 43.5649 66.78 43.5649 65.94C43.5649 63.12 47.1049 57.84 49.3849 55.26L49.5049 55.02C49.5049 54.66 49.0849 54.24 48.6649 54.24C48.5449 54.24 48.4249 54.3 48.3049 54.42C46.6849 56.22 42.5449 62.22 42.5449 65.94C42.5449 67.08 42.9649 68.04 43.9249 68.58C44.2249 68.76 44.6449 68.82 45.0049 68.82ZM54.4399 77.28C57.2599 77.28 61.3399 74.22 62.8999 65.64C67.4599 63.84 77.1799 61.5 80.4799 58.5L80.5399 58.32C80.5399 58.2 80.4799 58.14 80.3599 58.14C80.2999 58.14 80.2399 58.14 80.1799 58.2C77.8999 60.18 69.6199 62.88 63.0799 64.8C63.4999 62.1 63.4399 60.3 63.9199 58.32C64.5199 58.08 68.1199 56.28 68.1199 54.72L68.0599 54.36C67.8799 53.94 67.5199 53.76 67.0399 53.76C65.7199 53.76 63.5599 55.2 62.6599 57.6C61.8199 59.88 61.8799 63 61.5199 65.4C58.1599 66.78 55.8799 68.22 54.3199 69.72C52.3399 71.52 51.5599 73.26 51.5599 74.58C51.5599 76.2 52.7599 77.28 54.4399 77.28ZM64.0999 57.54C64.3999 56.22 66.1999 54.3 67.0999 54.3C67.3399 54.3 67.5199 54.42 67.5799 54.72V54.84C67.5799 55.74 64.7599 57.24 64.0999 57.54ZM54.4399 76.56C53.9599 76.56 53.5399 76.38 53.1799 76.08C52.6999 75.72 52.3999 75.24 52.3999 74.46C52.3999 73.5 52.9999 72.12 54.6799 70.38C56.4199 68.64 59.2999 67.14 61.3999 66.3C60.7399 71.64 57.0799 76.56 54.4399 76.56ZM85.5809 72.3C89.9609 72.18 99.9209 61.62 107.001 58.68C107.121 58.56 107.241 58.44 107.241 58.38C107.241 58.26 107.121 58.14 106.941 58.14L106.701 58.2C101.301 59.7 89.7209 71.4 85.7609 71.4H85.6409C85.0409 71.34 84.6209 70.68 84.6209 69.48C84.6209 68.22 85.1009 66.24 86.5409 63.66C87.7409 61.5 88.8809 59.58 90.0209 58.14L90.0809 57.96C90.0809 57.6 89.5409 57.12 89.1209 57.12C88.9409 57.12 88.8209 57.18 88.7609 57.3L87.9209 58.56C86.7809 56.94 85.6409 56.28 84.3209 56.28C83.9609 56.28 83.5409 56.28 83.1809 56.4C79.2209 57.48 77.1209 60.84 77.1209 63.3C77.1209 64.8 77.9009 65.94 79.5809 65.94C80.8409 65.94 82.6409 65.28 84.9809 63.54C84.0209 65.52 83.4809 67.74 83.4809 69.42C83.4809 71.1 84.0209 72.3 85.4009 72.3H85.5809ZM79.5209 65.16C78.6809 65.16 78.2009 64.74 78.2009 63.96C78.2009 63.12 78.6809 61.98 79.8809 60.42C81.1409 58.74 82.7609 57.24 84.3809 57.24C85.4009 57.24 86.4209 57.84 87.3209 59.4C84.2609 63.36 81.1409 65.16 79.5209 65.16Z" fill="white"/>
</svg>
